HIERARCHY
ROOT Hips
{
	OFFSET -0.001795 -0.223333 0.028219
	CHANNELS 6 Xposition Yposition Zposition Zrotation Yrotation Xrotation 
	JOINT LeftUpLeg
	{
		OFFSET 0.069520 -0.091406 -0.006815
		CHANNELS 3 Zrotation Yrotation Xrotation
		JOINT LeftLeg
		{
			OFFSET 0.034277 -0.375199 -0.004496
			CHANNELS 3 Zrotation Yrotation Xrotation
			JOINT LeftFoot
			{
				OFFSET -0.013596 -0.397961 -0.043693
				CHANNELS 3 Zrotation Yrotation Xrotation
				JOINT LeftToe
				{
					OFFSET 0.026358 -0.055791 0.119288
					CHANNELS 3 Zrotation Yrotation Xrotation
					End Site
					{
						OFFSET 0.000000 0.000000 0.000000
					}
				}
			}
		}
	}
	JOINT RightUpLeg
	{
		OFFSET -0.067670 -0.090522 -0.004320
		CHANNELS 3 Zrotation Yrotation Xrotation
		JOINT RightLeg
		{
			OFFSET -0.038290 -0.382569 -0.008850
			CHANNELS 3 Zrotation Yrotation Xrotation
			JOINT RightFoot
			{
				OFFSET 0.015774 -0.398415 -0.042312
				CHANNELS 3 Zrotation Yrotation Xrotation
				JOINT RightToe
				{
					OFFSET -0.025372 -0.048144 0.123348
					CHANNELS 3 Zrotation Yrotation Xrotation
					End Site
					{
						OFFSET 0.000000 0.000000 0.000000
					}
				}
			}
		}
	}
	JOINT Spine
	{
		OFFSET -0.002533 0.108963 -0.026696
		CHANNELS 3 Zrotation Yrotation Xrotation
		JOINT Spine1
		{
			OFFSET 0.005487 0.135180 0.001092
			CHANNELS 3 Zrotation Yrotation Xrotation
			JOINT Spine2
			{
				OFFSET 0.001457 0.052922 0.025425
				CHANNELS 3 Zrotation Yrotation Xrotation
				JOINT Neck
				{
					OFFSET -0.002778 0.213870 -0.042857
					CHANNELS 3 Zrotation Yrotation Xrotation
					JOINT Head
					{
						OFFSET 0.005152 0.064970 0.051349
						CHANNELS 3 Zrotation Yrotation Xrotation
						End Site
						{
							OFFSET 0.000000 0.000000 0.000000
						}
					}
				}
				JOINT LeftShoulder
				{
					OFFSET 0.078845 0.121749 -0.034090
					CHANNELS 3 Zrotation Yrotation Xrotation
					JOINT LeftArm
					{
						OFFSET 0.090977 0.030469 -0.008868
						CHANNELS 3 Zrotation Yrotation Xrotation
						JOINT LeftForeArm
						{
							OFFSET 0.259612 -0.012772 -0.027456
							CHANNELS 3 Zrotation Yrotation Xrotation
							JOINT LeftHand
							{
								OFFSET 0.249234 0.008986 -0.001171
								CHANNELS 3 Zrotation Yrotation Xrotation
								End Site
								{
									OFFSET 0.000000 0.000000 0.000000
								}
							}
						}
					}
				}
				JOINT RightShoulder
				{
					OFFSET -0.081759 0.118833 -0.038615
					CHANNELS 3 Zrotation Yrotation Xrotation
					JOINT RightArm
					{
						OFFSET -0.096012 0.032551 -0.009143
						CHANNELS 3 Zrotation Yrotation Xrotation
						JOINT RightForeArm
						{
							OFFSET -0.253742 -0.013329 -0.021401
							CHANNELS 3 Zrotation Yrotation Xrotation
							JOINT RightHand
							{
								OFFSET -0.255298 0.007772 -0.005559
								CHANNELS 3 Zrotation Yrotation Xrotation
								End Site
								{
									OFFSET 0.000000 0.000000 0.000000
								}
							}
						}
					}
				}
			}
		}
	}
}
MOTION
Frames: 13
Frame Time: 0.050000
-0.062346 0.935553 0.989746 1.321479 14.736135 7.136226 -0.363563 -0.463796 -5.500008 -0.368119 0.188563 -7.242592 0.063321 4.403877 7.509530 0.000000 0.000000 0.000000 -4.226284 0.305854 -3.949891 -0.642983 -0.274655 -7.224033 1.690822 1.752611 7.609463 0.000000 0.000000 0.000000 9.199298 -0.142018 -2.443915 -1.634557 0.518896 3.172087 -4.637050 7.120438 3.172330 11.368056 -3.093814 -20.710891 0.000000 0.000000 0.000000 -29.127358 -24.708070 6.422239 -30.832839 -12.489194 1.340434 -31.551524 -75.095005 23.996825 0.000000 0.000000 0.000000 24.968527 14.011681 12.129886 22.298758 17.906137 -0.866531 -36.308706 48.855042 -12.405556 0.000000 0.000000 0.000000 
-0.064544 0.935761 0.990989 1.468167 14.923433 7.398035 -0.271221 -0.482860 -5.702076 -0.620491 0.188961 -7.083141 -0.000199 4.270321 7.434506 0.000000 0.000000 0.000000 -4.252446 0.317566 -4.142334 -0.423716 -0.297210 -7.357984 1.178033 0.605274 7.809607 0.000000 0.000000 0.000000 9.250003 -0.104281 -2.896301 -1.655130 0.513987 3.321790 -4.296882 7.043704 2.974812 11.266898 -3.170192 -20.136946 0.000000 0.000000 0.000000 -28.750774 -23.982207 5.971994 -30.898881 -11.376542 1.069479 -40.245612 -75.228087 30.944463 0.000000 0.000000 0.000000 24.230042 13.847932 11.779165 22.510146 17.119149 -0.921586 -35.877808 50.942111 -12.808611 0.000000 0.000000 0.000000 
-0.066956 0.935923 0.992307 1.680090 14.853553 7.497575 -0.151742 -0.473876 -5.602861 -0.898094 0.193877 -7.180476 0.008274 4.338873 7.559895 0.000000 0.000000 0.000000 -4.363912 0.328116 -4.372490 -0.400794 -0.297199 -7.333820 1.080617 0.391521 7.803442 0.000000 0.000000 0.000000 9.121463 -0.087531 -3.027309 -1.591408 0.475411 3.428775 -4.244753 7.230306 2.685987 11.235522 -3.269987 -19.538423 0.000000 0.000000 0.000000 -28.388164 -23.380923 5.511332 -30.419910 -10.118845 0.785276 -46.705090 -75.097618 36.073159 0.000000 0.000000 0.000000 23.811328 13.278826 11.322260 22.762095 16.558299 -0.967548 -35.705562 53.682607 -13.494366 0.000000 0.000000 0.000000 
-0.069796 0.936016 0.993686 1.961636 14.806614 7.621076 -0.112002 -0.481488 -5.677948 -0.988334 0.194554 -7.057189 0.077055 4.371270 7.390401 0.000000 0.000000 0.000000 -4.455138 0.339540 -4.619175 -0.286277 -0.299160 -7.238337 0.878613 -0.041371 7.776483 0.000000 0.000000 0.000000 9.129590 -0.077348 -3.148094 -1.647513 0.496668 3.516202 -4.066207 7.268276 2.542640 11.348882 -3.497914 -18.860116 0.000000 0.000000 0.000000 -28.279359 -22.775753 5.128865 -29.531318 -8.576307 0.429582 -51.989691 -76.060725 41.170914 0.000000 0.000000 0.000000 23.384591 12.802499 10.879304 23.094761 15.896300 -1.031972 -36.698761 56.905234 -14.941179 0.000000 0.000000 0.000000 
-0.073112 0.935993 0.994904 2.266710 14.791760 7.725167 -0.188549 -0.465581 -5.518359 -1.029369 0.195993 -7.180057 -0.050872 4.170398 7.438227 0.000000 0.000000 0.000000 -4.736590 0.332544 -4.685402 -0.086986 -0.307547 -7.148887 0.949676 0.162269 7.583787 0.000000 0.000000 0.000000 8.953497 -0.048391 -3.389501 -1.706832 0.524679 3.532483 -3.961673 7.268426 2.364927 10.875090 -3.365278 -18.230105 0.000000 0.000000 0.000000 -28.003591 -21.788933 4.524175 -28.419194 -7.683258 0.210018 -52.424337 -76.825932 42.209874 0.000000 0.000000 0.000000 23.542571 12.530095 10.718205 23.327538 15.141959 -1.128115 -39.588770 60.452475 -17.776179 0.000000 0.000000 0.000000 
-0.076797 0.936024 0.995927 2.573007 14.963960 7.939078 -0.366344 -0.491663 -5.801342 -0.833225 0.190010 -6.881082 -0.150411 4.089830 7.585400 0.000000 0.000000 0.000000 -4.743895 0.346524 -4.960853 -0.077232 -0.300051 -6.999152 0.877343 0.048117 7.498693 0.000000 0.000000 0.000000 8.866319 -0.024932 -3.660637 -1.724476 0.500751 3.927575 -3.875706 7.657937 1.782438 10.709212 -3.425909 -17.342884 0.000000 0.000000 0.000000 -27.487646 -21.332106 4.058903 -27.210705 -6.977337 0.123694 -48.230718 -78.316095 39.612025 0.000000 0.000000 0.000000 23.454263 11.834123 10.380019 23.782198 14.596527 -1.209522 -42.230594 64.329015 -20.744134 0.000000 0.000000 0.000000 
-0.080739 0.936342 0.997028 2.824514 15.440786 7.867703 -0.454453 -0.489121 -5.790911 -0.824769 0.183531 -6.513358 -0.227828 3.812089 7.230417 0.000000 0.000000 0.000000 -4.775750 0.338069 -4.977735 -0.048323 -0.275213 -6.497604 0.896252 0.238992 7.105474 0.000000 0.000000 0.000000 8.737752 -0.027946 -3.604543 -1.713024 0.482891 3.960839 -3.630048 7.609040 1.527109 10.201995 -3.254943 -16.701396 0.000000 0.000000 0.000000 -27.265029 -20.441760 3.460773 -26.211791 -6.898321 0.111404 -41.600308 -79.356903 34.635558 0.000000 0.000000 0.000000 23.407935 11.571821 10.225361 24.324150 14.085244 -1.274756 -45.223150 67.965314 -24.256607 0.000000 0.000000 0.000000 
-0.084970 0.936462 0.998472 3.069796 15.905576 7.762775 -0.505712 -0.494876 -5.859211 -0.715608 0.174359 -6.057668 -0.317988 3.749633 7.341051 0.000000 0.000000 0.000000 -4.763234 0.316632 -4.709239 -0.067973 -0.261510 -6.265369 0.845194 0.195618 7.001636 0.000000 0.000000 0.000000 8.590410 -0.020898 -3.630920 -1.643545 0.415890 4.249841 -3.669452 7.963407 1.073875 10.116556 -3.270066 -16.174374 0.000000 0.000000 0.000000 -27.043761 -20.148324 3.035742 -25.774797 -6.517933 0.110336 -41.403337 -80.353829 34.929405 0.000000 0.000000 0.000000 23.444469 10.868053 9.948091 24.950318 13.951210 -1.308076 -48.173803 71.832104 -28.096786 0.000000 0.000000 0.000000 
-0.089566 0.936731 1.000332 3.242196 16.465139 7.685345 -0.429663 -0.505232 -5.974158 -0.689821 0.164845 -5.543915 -0.305708 3.674440 7.077095 0.000000 0.000000 0.000000 -4.686520 0.304639 -4.574754 -0.091838 -0.235415 -5.804429 0.870503 0.421301 6.531720 0.000000 0.000000 0.000000 8.506700 -0.017507 -3.657473 -1.674257 0.400202 4.487717 -3.853150 8.239169 0.691836 10.161108 -3.305985 -15.900213 0.000000 0.000000 0.000000 -26.643031 -19.642233 2.502594 -25.333999 -6.567380 0.180387 -47.048876 -81.237237 40.297463 0.000000 0.000000 0.000000 23.465570 10.570053 9.941966 25.463807 14.208608 -1.284970 -50.098622 74.374785 -30.756461 0.000000 0.000000 0.000000 
-0.094472 0.936941 1.002386 3.455106 16.968050 7.393770 -0.393452 -0.490733 -5.834562 -0.546163 0.152162 -5.035931 -0.389172 3.491783 6.942441 0.000000 0.000000 0.000000 -4.524368 0.269958 -3.998473 -0.247061 -0.218397 -5.731570 0.970125 0.691069 6.493922 0.000000 0.000000 0.000000 8.398119 -0.015623 -3.584641 -1.709280 0.400032 4.582902 -4.177910 8.490242 0.596454 10.416977 -3.311099 -16.298317 0.000000 0.000000 0.000000 -26.475873 -19.660665 2.297766 -24.838163 -6.346905 0.191034 -56.133658 -81.891837 48.878384 0.000000 0.000000 0.000000 23.611517 10.430830 10.079423 25.531814 14.919117 -1.214284 -50.512899 75.912893 -31.813550 0.000000 0.000000 0.000000 
-0.099546 0.936963 1.004246 3.613391 17.500698 7.359990 -0.445165 -0.509529 -6.037900 -0.274076 0.135812 -4.651500 -0.372573 3.568228 6.954193 0.000000 0.000000 0.000000 -4.220495 0.250096 -3.552624 -0.386193 -0.217205 -5.928280 0.893128 0.589281 6.390533 0.000000 0.000000 0.000000 8.333093 -0.008055 -3.668502 -1.795526 0.425841 4.654854 -4.561999 8.938386 0.495314 10.716217 -3.330547 -16.643179 0.000000 0.000000 0.000000 -25.930584 -19.887397 2.156523 -24.777160 -6.476356 0.288184 -71.192571 -81.895277 62.536925 0.000000 0.000000 0.000000 23.102608 10.442917 10.222424 25.555833 15.940289 -1.067728 -48.745285 75.981004 -30.168861 0.000000 0.000000 0.000000 
-0.104495 0.937166 1.005717 3.723657 17.745778 7.270815 -0.369300 -0.530616 -6.247062 -0.090687 0.119113 -4.146245 -0.360144 3.518620 6.787235 0.000000 0.000000 0.000000 -4.040525 0.229291 -3.169833 -0.166637 -0.236169 -5.937173 0.710474 0.273999 6.070950 0.000000 0.000000 0.000000 8.456479 -0.016169 -3.603831 -1.969821 0.534312 4.359576 -4.804391 8.996348 0.783635 10.913602 -3.324641 -17.048189 0.000000 0.000000 0.000000 -25.626331 -20.119447 2.235164 -24.817190 -7.283703 0.435601 -78.563836 -81.871363 69.364658 0.000000 0.000000 0.000000 22.734638 10.989675 10.585227 24.997825 17.164136 -0.899996 -44.446618 75.398607 -26.412645 0.000000 0.000000 0.000000 
-0.109135 0.937101 1.006724 3.813506 17.934085 7.233342 -0.233276 -0.552298 -6.463332 0.057883 0.108067 -3.912883 -0.458730 3.393315 6.847518 0.000000 0.000000 0.000000 -3.698066 0.221970 -2.905316 -0.228035 -0.248685 -6.259283 0.776175 0.435506 6.069136 0.000000 0.000000 0.000000 8.387295 -0.028216 -3.453858 -2.071645 0.593094 4.228322 -5.165752 9.163393 0.908517 11.212762 -3.404883 -17.316952 0.000000 0.000000 0.000000 -25.743708 -21.016252 2.605917 -24.600185 -8.044525 0.616671 -80.781630 -82.185063 71.714690 0.000000 0.000000 0.000000 22.276950 11.812549 11.112304 24.779622 18.115682 -0.751060 -41.812141 74.450522 -23.882808 0.000000 0.000000 0.000000 
